<svg width="176" height="46" viewBox="0 0 176 46" fill="none" xmlns="http://www.w3.org/2000/svg">
<path d="M15.6178 12.2631C10.0322 12.2631 4.93478 17.0827 4.93478 22.6519C4.93478 26.8289 7.48351 30.0955 12.2014 30.0955C17.7869 30.0955 22.9386 25.2759 22.9386 19.7066C22.9386 15.5832 20.3356 12.2631 15.6178 12.2631ZM4.88055 32.6123V45.4645H0V7.97904H4.88055V11.9418C7.80888 9.05006 11.7676 7.44354 15.6178 7.44354C22.559 7.44354 27.8191 12.5844 27.8191 19.546C27.8191 27.6321 20.4983 34.915 12.2014 34.915C9.70687 34.915 6.94123 34.1653 4.88055 32.6123Z" fill="white"/>
<path d="M39.3168 41.1804C44.9023 41.1804 49.9998 36.3609 49.9998 30.7916C49.9998 26.6147 47.4511 23.3481 42.7332 23.3481C37.1477 23.3481 31.996 28.1676 31.996 33.7369C31.996 37.8603 34.599 41.1804 39.3168 41.1804ZM31.996 12.7986V7.97904H54.9346V45.4645H50.054V41.5017C47.1257 44.3935 43.167 46 39.3168 46C32.3756 46 27.1154 40.8591 27.1154 33.8976C27.1154 25.8114 34.4363 18.5285 42.7332 18.5285C45.2277 18.5285 47.9934 19.2782 50.054 20.8312V12.7986H31.996Z" fill="white"/>
<path d="M58.7297 7.97904H63.6103V40.6449L74.8898 7.97904H80.0957V45.4645H74.944L74.8898 22.7055L67.0809 45.4645H58.7297V7.97904ZM63.6103 4.81956V0H74.8898V4.81956H63.6103Z" fill="white"/>
<path d="M84.7121 7.97904H103.638V12.7986H96.6423V45.4645H91.7618V12.7986H84.7121V7.97904Z" fill="white"/>
<path d="M120.187 7.44354C129.514 7.44354 135.263 15.369 135.263 23.9907C135.263 34.6473 126.64 46 115.252 46C105.925 46 100.177 38.1816 100.177 29.5064C100.177 18.8498 108.745 7.44354 120.187 7.44354ZM120.296 12.2631C111.402 12.2631 105.057 21.1525 105.057 29.4529C105.057 35.7718 109.016 41.1269 115.09 41.1269C123.929 41.1269 130.436 32.1839 130.436 23.9907C130.436 17.4575 126.315 12.2631 120.296 12.2631Z" fill="white"/>
<path d="M171.119 7.97904H176V45.4645H171.119V29.1315H142.921V45.4645H138.04V7.97904H142.921V24.312H171.119V7.97904Z" fill="white"/>
</svg>
