<svg width="20" height="18" viewBox="0 0 20 18" fill="none" xmlns="http://www.w3.org/2000/svg">
<path fill-rule="evenodd" clip-rule="evenodd" d="M17.8883 0.616302C18.133 0.513323 18.4008 0.477806 18.6639 0.513448C18.9269 0.54909 19.1756 0.654588 19.3841 0.818961C19.5925 0.983335 19.7531 1.20057 19.8491 1.44807C19.9451 1.69556 19.973 1.96427 19.9299 2.22621L17.6844 15.847C17.4666 17.1609 16.025 17.9143 14.82 17.2599C13.8121 16.7124 12.3151 15.8688 10.9685 14.9886C10.2953 14.548 8.23287 13.1371 8.48634 12.1332C8.70416 11.2747 12.1695 8.04899 14.1497 6.13116C14.9269 5.3777 14.5725 4.94304 13.6547 5.63611C11.3755 7.35691 7.71604 9.97374 6.50614 10.7104C5.43881 11.3599 4.88237 11.4708 4.21703 11.3599C3.00316 11.1579 1.87742 10.845 0.958606 10.4638C-0.28298 9.94899 -0.222584 8.24206 0.957616 7.74503L17.8883 0.616302Z" fill="white"/>
</svg>
